<svg xmlns="http://www.w3.org/2000/svg" id="Layer_1" height="512" viewBox="0 0 512 512" width="512"><path d="m421.706 48.984h-74.853v-5.008c0-4.418-3.582-8-8-8h-41.46c-6.676-16.747-22.893-27.976-41.393-27.976-18.502 0-34.718 11.228-41.394 27.976h-41.46c-4.418 0-8 3.582-8 8v5.008h-74.852c-16.277 0-29.521 13.243-29.521 29.52v395.975c0 16.277 13.243 29.521 29.521 29.521h331.412c16.277 0 29.521-13.243 29.521-29.521v-395.975c0-16.277-13.244-29.52-29.521-29.52zm-240.56 2.993h39.29c3.695 0 6.91-2.532 7.777-6.125 3.103-12.866 14.53-21.852 27.787-21.852s24.683 8.986 27.786 21.852c.867 3.593 4.082 6.124 7.777 6.124h39.29v39.954h-149.707zm157.708 55.953c4.418 0 8-3.582 8-8v-5.008h58.436v363.141h-298.579v-363.141h58.436v5.008c0 4.418 3.582 8 8 8zm96.373 366.549c0 7.455-6.065 13.521-13.521 13.521h-331.412c-7.455 0-13.521-6.065-13.521-13.521v-395.975c0-7.455 6.065-13.52 13.521-13.52h74.853v13.938h-66.436c-4.418 0-8 3.582-8 8v379.141c0 4.418 3.582 8 8 8h314.578c4.418 0 8-3.582 8-8v-379.141c0-4.418-3.582-8-8-8h-66.436v-13.938h74.853c7.455 0 13.521 6.065 13.521 13.52zm-298.675-332.034h238.896c4.418 0 8 3.582 8 8s-3.582 8-8 8h-238.896c-4.418 0-8-3.582-8-8s3.582-8 8-8zm129.126-96.453c0 5.33-4.347 9.677-9.678 9.677-5.33 0-9.677-4.347-9.677-9.677s4.347-9.677 9.677-9.677c5.33-.001 9.678 4.346 9.678 9.677zm105.938 169.828-112.466-48.198c-2.012-.862-4.291-.862-6.303 0l-112.464 48.198c-2.941 1.261-4.849 4.153-4.849 7.353v90.939c0 32.487 11.611 64.177 32.694 89.231 21.073 25.042 50.303 41.906 82.303 47.484 1.781.311 3.654.833 5.468.833 1.826 0 3.674-.52 5.468-.833 32.001-5.578 61.231-22.442 82.305-47.485 21.082-25.054 32.693-56.743 32.693-89.23v-90.939c0-3.2-1.907-6.092-4.849-7.353zm-11.151 98.292c0 59.809-42.79 110.677-101.746 120.954l-2.72.474-2.719-.474c-58.956-10.277-101.746-61.146-101.746-120.954v-85.664l104.465-44.771 104.466 44.771zm-191.71-4.795c0 48.107 39.138 87.245 87.245 87.245 48.106 0 87.244-39.138 87.244-87.245 0-48.106-39.138-87.244-87.244-87.244-48.107 0-87.245 39.138-87.245 87.244zm87.245-71.244c39.284 0 71.244 31.96 71.244 71.244 0 39.285-31.96 71.245-71.244 71.245-39.285 0-71.245-31.96-71.245-71.245 0-39.284 31.96-71.244 71.245-71.244zm-49.721 84.436 24.503 24.502c3.578 3.577 8.335 5.548 13.395 5.548 5.061 0 9.817-1.971 13.395-5.548 13.254-13.253 40.485-40.9 48.193-48.685 3.562-3.582 5.518-8.337 5.503-13.389-.014-5.053-1.995-9.797-5.575-13.356-3.568-3.551-8.302-5.504-13.335-5.504-.018 0-.037 0-.055 0-5.052.014-9.796 1.994-13.368 5.587l-34.801 35.119-11.065-11.065c-7.385-7.383-19.4-7.383-26.789 0-3.577 3.578-5.548 8.335-5.548 13.396s1.97 9.817 5.547 13.395zm11.313-15.476c1.148-1.148 3.017-1.147 4.163-.001l16.748 16.748c1.501 1.5 3.535 2.343 5.657 2.343h.019c2.128-.005 4.166-.857 5.664-2.369l40.446-40.817c.741-.745 1.608-.858 2.059-.859h.008c.452 0 1.313.111 2.055.849.743.739.856 1.605.857 2.056.002.45-.106 1.317-.859 2.074-7.732 7.81-34.939 35.432-48.15 48.641-1.147 1.148-3.015 1.147-4.162 0l-24.503-24.502h.001c-.75-.75-.862-1.626-.862-2.081s.111-1.333.859-2.082z"></path></svg>