<?xml version="1.0" standalone="no"?>
<!DOCTYPE svg PUBLIC "-//W3C//DTD SVG 20010904//EN"
 "http://www.w3.org/TR/2001/REC-SVG-20010904/DTD/svg10.dtd">
<svg version="1.0" xmlns="http://www.w3.org/2000/svg"
 width="540.000000pt" height="540.000000pt" viewBox="0 0 540.000000 540.000000"
 preserveAspectRatio="xMidYMid meet">
<metadata>
Created by potrace 1.14, written by Peter Selinger 2001-2017
</metadata>
<g transform="translate(0.000000,540.000000) scale(0.100000,-0.100000)"
fill="#000000" stroke="none">
<path d="M2567 5102 c-103 -37 -157 -113 -157 -222 0 -33 6 -75 13 -93 63
-150 253 -191 375 -82 138 124 88 347 -90 400 -64 19 -81 18 -141 -3z"/>
<path d="M4270 4673 c-14 -2 -149 -26 -300 -53 -445 -79 -833 -147 -1020 -180
-196 -34 -212 -38 -208 -50 2 -7 446 -339 485 -363 11 -7 222 26 523 82 85 16
236 43 335 61 99 17 197 36 218 41 l37 10 0 229 0 230 -22 -1 c-13 -1 -34 -4
-48 -6z"/>
<path d="M2490 4359 c-25 -4 -164 -28 -310 -54 -146 -25 -404 -70 -575 -100
-170 -30 -388 -68 -484 -85 -96 -17 -178 -33 -182 -36 -11 -6 -12 -434 -1
-450 5 -7 68 1 207 27 110 21 256 47 325 59 69 12 235 41 370 66 135 24 255
45 268 47 l22 4 0 -487 0 -488 -222 -42 c-123 -24 -268 -52 -323 -64 l-100
-21 -3 -220 c-1 -121 0 -225 2 -231 3 -8 17 -9 48 -3 24 5 158 32 298 59 140
28 265 53 278 55 l22 5 0 -960 c0 -528 3 -960 7 -960 3 0 105 57 226 127 l220
127 -6 1125 c-4 618 -7 1436 -7 1818 0 654 -1 693 -17 692 -10 -1 -38 -5 -63
-10z"/>
<path d="M2700 2503 l0 -1769 178 -78 c97 -44 227 -101 287 -128 290 -130 564
-248 574 -248 8 0 11 76 11 264 l0 264 -62 25 c-35 14 -88 36 -118 50 -30 14
-95 43 -145 65 -49 22 -138 61 -197 87 l-108 48 0 1446 -1 1446 -22 16 c-112
81 -348 249 -369 263 l-28 18 0 -1769z"/>
<path d="M3715 3115 c-58 -11 -427 -94 -452 -101 -19 -5 -19 -454 0 -454 19 0
476 100 530 116 15 5 17 25 17 230 0 254 11 231 -95 209z"/>
</g>
</svg>
